<svg width="120" height="120" viewBox="0 0 120 120" fill="none" xmlns="http://www.w3.org/2000/svg">
<path fill-rule="evenodd" clip-rule="evenodd" d="M104.67 19.9323C100.925 15.7481 94.5123 15.406 90.3471 19.1681C86.1818 22.9302 85.8412 29.3719 89.5863 33.5561C95.8916 40.6008 99.7159 49.895 99.7159 60.1106C99.7159 75.22 91.3207 88.3596 78.9605 95.079C82.633 96.7797 85.561 100.036 86.7152 104.261C87.6887 107.824 87.227 111.443 85.6818 114.496C105.965 104.874 120 84.1389 120 60.1106C120 44.6722 114.193 30.5722 104.67 19.9323Z" fill="#1C1C1C"/>
<path d="M36.9918 27.4926C43.3945 23.0062 51.1699 20.3765 59.5872 20.3765C68.0044 20.3765 75.7798 23.0062 82.1825 27.4926C82.3342 27.5989 82.4877 27.7004 82.643 27.7973C82.3329 23.5486 83.9128 19.2063 87.3104 16.1376C89.73 13.9521 92.6913 12.756 95.7028 12.5229C95.1532 11.8765 94.5134 11.2891 93.7869 10.7801C84.0906 3.98588 72.2871 0 59.5872 0C46.8873 0 35.0837 3.98587 25.3874 10.7801C20.7933 13.9992 19.6668 20.35 22.8713 24.965C26.0757 29.5801 32.3977 30.7117 36.9918 27.4926Z" fill="#95A4FC"/>
<path fill-rule="evenodd" clip-rule="evenodd" d="M17.0119 18.3464C16.3669 18.7927 15.7633 19.3216 15.2166 19.9324C10.6472 25.0376 6.93133 30.94 4.30199 37.4135C2.18591 42.6234 4.67475 48.57 9.86095 50.6957C15.0471 52.8214 20.9668 50.3213 23.0829 45.1114C24.8159 40.8447 27.2707 36.941 30.3002 33.5562C30.352 33.4984 30.403 33.4401 30.4532 33.3814C26.2304 33.1582 22.1505 31.0505 19.5439 27.2966C17.6539 24.5746 16.8401 21.4214 17.0119 18.3464Z" fill="#B1E3FF"/>
<path fill-rule="evenodd" clip-rule="evenodd" d="M1.81254 47.2351C3.26614 50.4036 5.87327 53.0469 9.34258 54.4689C13.1587 56.0331 17.2585 55.8082 20.7197 54.1838C20.4333 56.1121 20.2841 58.0907 20.2841 60.1105C20.2841 72.964 26.3595 84.392 35.7831 91.6547C36.2843 91.8939 36.7726 92.1778 37.2428 92.5073C43.6455 96.9937 51.4209 99.6234 59.8381 99.6234C63.4875 99.6234 67.0059 99.1296 70.3383 98.2108C75.7398 96.7215 81.3204 99.913 82.803 105.339C84.2855 110.765 81.1086 116.371 75.707 117.861C70.6418 119.257 65.3182 120 59.8381 120C56.1352 120 52.5085 119.661 48.988 119.013C49.0628 119.102 49.1388 119.19 49.2158 119.277C21.2354 114.241 0 89.6671 0 60.1105C0 56.7797 0.270663 53.5049 0.793098 50.309C0.973374 49.2062 1.32363 48.174 1.81254 47.2351Z" fill="#BAEDBD"/>
</svg>
